PathFileType	4	(X/Y/Z)	/Users/itak/Documents/Research/Walk-IL/dataset/trc/00539_00009.trc
DataRate	CameraRate	NumFrames	NumMarkers	Units	OrigDataRate	OrigDataStartFrame	OrigNumFrames
100.000000	100.000000	4	53	mm	100.000000	475	761
Frame#	Time	RPSI			LPSI			L3			STRN			T10			C7			CLAV			RBAK			LBAK			LSHO			LUPA			LAEL			LAOL			LWTS			LWPS			LFRA			LIFD			LHPS			LHTS			RSHO			RUPA			RAEL			RAOL			RWTS			RWPS			RFRA			RIFD			RHTS			RHPS			RBHD			LFHD			RFHD			LBHD			LHIP			RHIP			RASI			LASI			LKNE			LTHI			LANK			LTIP			LTOE			LMT1			LMT5			LHEE			RKNE			RTHI			RANK			RTIP			RTOE			RMT1			RMT5			RHEE			
		X1	Y1	Z1	X2	Y2	Z2	X3	Y3	Z3	X4	Y4	Z4	X5	Y5	Z5	X6	Y6	Z6	X7	Y7	Z7	X8	Y8	Z8	X9	Y9	Z9	X10	Y10	Z10	X11	Y11	Z11	X12	Y12	Z12	X13	Y13	Z13	X14	Y14	Z14	X15	Y15	Z15	X16	Y16	Z16	X17	Y17	Z17	X18	Y18	Z18	X19	Y19	Z19	X20	Y20	Z20	X21	Y21	Z21	X22	Y22	Z22	X23	Y23	Z23	X24	Y24	Z24	X25	Y25	Z25	X26	Y26	Z26	X27	Y27	Z27	X28	Y28	Z28	X29	Y29	Z29	X30	Y30	Z30	X31	Y31	Z31	X32	Y32	Z32	X33	Y33	Z33	X34	Y34	Z34	X35	Y35	Z35	X36	Y36	Z36	X37	Y37	Z37	X38	Y38	Z38	X39	Y39	Z39	X40	Y40	Z40	X41	Y41	Z41	X42	Y42	Z42	X43	Y43	Z43	X44	Y44	Z44	X45	Y45	Z45	X46	Y46	Z46	X47	Y47	Z47	X48	Y48	Z48	X49	Y49	Z49	X50	Y50	Z50	X51	Y51	Z51	X52	Y52	Z52	X53	Y53	Z53	

476	4.75	443.8017272949219	1010.575134277344	543.871826171875	451.5391540527344	1013.562622070312	410.2969360351562	449.2244567871094	1105.927612304688	470.1339111328125	684.9258422851562	1287.898071289062	470.26025390625	442.3180847167969	1230.904296875	467.3818664550781	494.4589538574219	1503.342529296875	483.2633666992188	666.951171875	1399.453979492188	472.6497192382812	421.6433410644531	1378.509399414062	568.134521484375	461.2166442871094	1452.10595703125	390.4422302246094	561.7996215820312	1476.0654296875	310.6701354980469	548.9071044921875	1352.860717773438	225.7164306640625	555.8716430664062	1131.925048828125	192.8615264892578	468.701171875	1127.462036132812	245.0129089355469	627.0066528320312	878.2213134765625	219.8416748046875	577.8214721679688	865.8551025390625	148.4517517089844	571.4852905273438	1044.850463867188	179.9651947021484	605.4404907226562	709.2715454101562	201.7755279541016	580.4965209960938	804.96142578125	151.3033599853516	633.7752685546875	801.21826171875	193.3647766113281	553.7697143554688	1461.023559570312	638.348876953125	533.2997436523438	1396.15869140625	704.8248901367188	519.2135009765625	1107.405883789062	748.553955078125	464.9174194335938	1089.360229492188	719.4628295898438	662.3137817382812	893.6306762695312	716.5018920898438	614.7593383789062	870.577880859375	779.47265625	530.1884155273438	1052.439453125	756.4254150390625	681.9105224609375	721.511474609375	719.2994384765625	694.4525146484375	803.580322265625	732.7986450195312	636.3468017578125	797.807373046875	778.7232055664062	571.27880859375	1680.989013671875	546.41552734375	739.0778198242188	1701.364868164062	425.139404296875	709.4924926757812	1698.674682617188	566.6848754882812	612.1068115234375	1681.990966796875	386.4443664550781	575.6350708007812	929.1409912109375	282.6254272460938	570.034912109375	940.7278442382812	666.6502075195312	654.9395751953125	972.8095092773438	607.7872314453125	655.9148559570312	952.5736083984375	332.5621643066406	545.9703369140625	483.0442810058594	327.8496704101562	573.2249145507812	650.5759887695312	302.2728271484375	222.2183074951172	106.7073593139648	329.5910339355469	362.0962829589844	298.4411926269531	318.0145263671875	394.1997985839844	37.51116943359375	417.5086975097656	333.6758117675781	64.03337097167969	439.522705078125	319.9273986816406	40.96592330932617	337.6398010253906	168.5868377685547	160.9972534179688	373.3054809570312	676.9144287109375	505.8572998046875	598.9444580078125	630.4591064453125	789.5394897460938	660.2495727539062	612.3143310546875	41.30844116210938	565.2271118164062	690.7037353515625	360.5469055175781	579.3936157226562	834.1417236328125	41.9396858215332	524.742431640625	768.994140625	42.24219512939453	484.3536376953125	745.0985107421875	43.15500640869141	584.6450805664062	557.6629638671875	34.33865737915039	507.03369140625	
477	4.76	448.6808471679688	1010.797729492188	545.104248046875	456.3590698242188	1013.617797851562	411.5187377929688	454.0266723632812	1106.004760742188	471.5212097167969	689.3814697265625	1288.22705078125	471.5905456542969	446.8297424316406	1230.961547851562	468.9110717773438	498.6777648925781	1503.443969726562	484.7724914550781	671.2915649414062	1399.768188476562	473.9786682128906	426.1097717285156	1378.528442382812	569.8192138671875	465.3362426757812	1452.157836914062	391.9559326171875	565.9083251953125	1476.203125	312.1117248535156	553.6415405273438	1352.895751953125	227.2532806396484	562.3463745117188	1131.897827148438	194.6448364257812	475.0492248535156	1126.810791015625	246.4627532958984	636.1351928710938	879.1875	222.2989044189453	587.1990966796875	866.0653686523438	150.8994598388672	578.8997802734375	1045.028564453125	181.9070892333984	616.6786499023438	709.9551391601562	204.6185302734375	590.6162719726562	805.2048950195312	153.8976745605469	643.8405151367188	802.2345581054688	196.0640869140625	558.30224609375	1461.256103515625	639.8034057617188	538.1141967773438	1396.388671875	706.3433227539062	525.0311279296875	1107.553466796875	750.1839599609375	470.6084289550781	1089.368041992188	721.311767578125	668.5181884765625	894.158447265625	717.7315063476562	621.266357421875	871.0052490234375	780.834228515625	536.1555786132812	1052.634399414062	758.0484008789062	688.6685791015625	722.1058349609375	720.4862060546875	700.9710693359375	804.2252197265625	733.9523315429688	643.0007934570312	798.3056030273438	780.0909423828125	575.6528930664062	1681.1669921875	547.8922729492188	743.33056640625	1701.592529296875	426.4464416503906	713.9072265625	1698.798950195312	568.04052734375	616.2424926757812	1682.290649414062	387.9404602050781	580.85595703125	929.3306884765625	284.0580444335938	575.081298828125	941.0049438476562	667.9190673828125	659.820068359375	973.0630493164062	609.2297973632812	660.8528442382812	952.8770141601562	333.9696044921875	553.9652099609375	482.7529602050781	326.3417358398438	579.8611450195312	650.7464599609375	301.8976745605469	225.310302734375	110.0182952880859	328.1469116210938	368.1983337402344	300.0470275878906	316.610595703125	394.5541687011719	37.40092468261719	417.1784973144531	335.0866088867188	65.15076446533203	438.7753295898438	321.4326782226562	41.55871963500977	337.1001281738281	173.0943298339844	165.9435729980469	371.2538757324219	679.1740112304688	505.4691162109375	599.7216186523438	634.62060546875	789.4949340820312	661.3081665039062	612.3650512695312	41.32479476928711	565.2515869140625	692.1585083007812	360.152587890625	579.9057006835938	834.2227172851562	41.74941253662109	524.824951171875	769.1210327148438	42.20797729492188	484.2029418945312	745.1456298828125	43.14890289306641	584.5977172851562	557.6798095703125	34.35675430297852	507.1077270507812	
478	4.77	453.4820251464844	1011.045166015625	546.2855834960938	461.1136474609375	1013.681457519531	412.6843566894531	458.7720031738281	1106.1005859375	472.8757934570312	693.7727661132812	1288.56494140625	472.9021301269531	451.2854309082031	1231.030029296875	470.4341430664062	502.8509521484375	1503.5615234375	486.274658203125	675.5747680664062	1400.091430664062	475.2823486328125	430.5185241699219	1378.57421875	571.5231323242188	469.3935241699219	1452.225341796875	393.4599609375	569.932861328125	1476.335571289062	313.545654296875	558.296630859375	1352.926391601562	228.8029022216797	568.8075561523438	1131.901733398438	196.4441986083984	481.3489685058594	1126.15185546875	247.9010009765625	645.33837890625	880.2499389648438	224.9189453125	596.716796875	866.3093872070312	153.4919891357422	586.3233642578125	1045.227783203125	183.9237518310547	628.1383056640625	710.7534790039062	207.6833801269531	600.905517578125	805.501953125	156.6796417236328	654.0479736328125	803.3544921875	198.9763031005859	562.7830200195312	1461.522583007812	641.2470703125	542.8743896484375	1396.6572265625	707.86572265625	530.79833984375	1107.74267578125	751.7804565429688	476.2758483886719	1089.431884765625	723.0878295898438	674.6091918945312	894.6740112304688	718.9559936523438	627.6573486328125	871.4423828125	782.1804809570312	542.0519409179688	1052.859741210938	759.6454467773438	695.2540283203125	722.6817016601562	721.6782836914062	707.3411254882812	804.845947265625	735.116943359375	649.5070190429688	798.80908203125	781.4464111328125	579.981689453125	1681.359741210938	549.3302612304688	747.5322875976562	1701.82568359375	427.7223815917969	718.2659301757812	1698.9326171875	569.3621826171875	620.3306884765625	1682.601928710938	389.3930358886719	586.0548095703125	929.5784301757812	285.4493103027344	580.0699462890625	941.2952880859375	669.1099243164062	664.6296997070312	973.3226318359375	610.6265258789062	665.7114868164062	953.205078125	335.340087890625	562.11279296875	482.5079650878906	324.7509765625	586.5389404296875	650.9445190429688	301.4646606445312	228.6250762939453	113.4425582885742	326.5806274414062	374.5641784667969	301.7457275390625	315.0322570800781	395.0278625488281	37.24789428710938	416.8379821777344	336.6496887207031	66.40914916992188	437.9468383789062	323.100341796875	42.25211334228516	336.4644470214844	177.8678588867188	170.9831695556641	369.0162963867188	681.2279052734375	505.0891418457031	600.499755859375	638.7401123046875	789.4666137695312	662.315185546875	612.4097900390625	41.33721923828125	565.2766723632812	693.442138671875	359.7852783203125	580.4110107421875	834.283935546875	41.5832633972168	524.9187622070312	769.2266845703125	42.16582489013672	484.0664367675781	745.18701171875	43.14595413208008	584.5433959960938	557.6937255859375	34.37177276611328	507.1904602050781	
479	4.78	458.2042541503906	1011.314514160156	547.4208984375	465.7836608886719	1013.749755859375	413.8024597167969	463.4565734863281	1106.2197265625	474.1991882324219	698.0962524414062	1288.911743164062	474.1937255859375	455.6845092773438	1231.114990234375	471.9506225585938	506.9786682128906	1503.69921875	487.773681640625	679.8002319335938	1400.424072265625	476.5662841796875	434.8814697265625	1378.6572265625	573.2456665039062	473.3866271972656	1452.315673828125	394.96142578125	573.8741455078125	1476.4677734375	314.9721374511719	562.8679809570312	1352.960083007812	230.3634338378906	575.2349853515625	1131.9453125	198.2580413818359	487.5891723632812	1125.490966796875	249.3362579345703	654.5889892578125	881.417724609375	227.6931304931641	606.3428344726562	866.6004028320312	156.2267150878906	593.7258911132812	1045.4580078125	186.0162506103516	639.7890625	711.6834106445312	210.9698791503906	611.337646484375	805.8690795898438	159.6417388916016	664.382568359375	804.5940551757812	202.0822906494141	567.21923828125	1461.82177734375	642.6787109375	547.5810546875	1396.964477539062	709.3953857421875	536.5088500976562	1107.972412109375	753.343017578125	481.9131469726562	1089.550659179688	724.79248046875	680.5916748046875	895.1812744140625	720.1626586914062	633.9301147460938	871.890380859375	783.5068969726562	547.8701782226562	1053.118041992188	761.2171630859375	701.6629638671875	723.2427368164062	722.8683471679688	713.563232421875	805.4439697265625	736.2849731445312	655.87646484375	799.3184204101562	782.7794189453125	584.2650146484375	1681.571411132812	550.7333984375	751.6795654296875	1702.062744140625	428.9618225097656	722.5706176757812	1699.077270507812	570.6435546875	624.3727416992188	1682.920288085938	390.7991638183594	591.1958618164062	929.8980712890625	286.79736328125	584.9969482421875	941.600341796875	670.2247314453125	669.3677978515625	973.5892944335938	611.962646484375	670.4740600585938	953.5634765625	336.6548767089844	570.4511108398438	482.3020629882812	323.1244201660156	593.3085327148438	651.162841796875	300.983154296875	232.2235717773438	117.0131683349609	324.8811340332031	381.2017517089844	303.5040283203125	313.3441772460938	395.6449279785156	37.03622055053711	416.5094909667969	338.3550415039062	67.79792022705078	437.0697326660156	324.9397888183594	43.07050323486328	335.7505798339844	182.9334564208984	176.1130218505859	366.6141052246094	683.0714111328125	504.7191772460938	601.2747802734375	642.78564453125	789.4611206054688	663.2759399414062	612.4500122070312	41.34482955932617	565.29345703125	694.55615234375	359.4431762695312	580.8970947265625	834.3216552734375	41.44614028930664	525.0166625976562	769.3114624023438	42.1207160949707	483.9408874511719	745.2240600585938	43.14723205566406	584.4804077148438	557.7059326171875	34.3846435546875	507.2772216796875	
